<svg width="1605" height="956" viewBox="0 0 1605 956" fill="none" xmlns="http://www.w3.org/2000/svg">
<g clip-path="url(#clip0_1_3)">
<path d="M978.096 803.08L984.881 790.264V860H978.096V803.08ZM991.667 777.07L998.452 764.254V860H991.667V777.07ZM1005.24 751.438L1012.02 738.527V860H1005.24V751.438ZM959.72 799.876L955.856 792.808L1002.6 703.941H1010.23L959.72 799.876ZM951.898 785.081L947.94 777.918L987.143 703.941H994.871L951.898 785.081ZM906.475 791.018L913.26 803.834V860H906.475V791.018ZM892.905 765.196L899.69 778.013V860H892.905V765.196ZM879.334 739.375L886.12 752.286V860H879.334V739.375ZM934.181 819.289H926.548L872.549 716.852V860H865.764V703.941H873.397L934.181 819.289ZM949.542 819.289H941.814L881.125 703.941H888.853L949.542 819.289ZM1018.81 716.852L964.809 819.289H957.081L896.486 703.941H904.119L961.039 812.127L1017.86 703.941H1025.59V860H1018.81V716.852ZM1110.88 814.2L1113.61 807.415H1136.79L1139.53 814.2H1110.88ZM1105.6 827.771L1108.24 820.985H1142.07L1144.99 827.771H1105.6ZM1100.32 841.341L1102.96 834.556H1147.44L1150.27 841.341H1100.32ZM1045.19 860H1037.84L1099.57 703.941H1106.92L1168.55 860H1161.3L1103.24 713.083L1045.19 860ZM1104.09 729.197L1107.96 737.867L1059.71 860H1052.45L1104.09 729.197ZM1111.63 747.103L1115.21 756.432L1074.41 860H1067.06L1111.63 747.103ZM1118.79 765.762L1122.38 775.28L1088.92 860H1081.66L1118.79 765.762ZM1212.37 860H1205.02L1143.39 703.941H1150.65L1212.37 860ZM1136.04 703.941L1197.77 860H1190.51L1128.78 703.941H1136.04ZM1121.43 703.941L1183.16 860H1175.81L1114.18 703.941H1121.43ZM1271.55 775.657L1267.5 782.065L1218.4 703.941H1226.41L1271.55 775.657ZM1305.01 826.64L1308.97 820.231L1334.03 860H1326.02L1305.01 826.64ZM1279.56 763.029L1275.51 769.343L1234.42 703.941H1242.34L1279.56 763.029ZM1313.02 813.917L1316.98 807.509L1350.05 860H1342.04L1313.02 813.917ZM1287.57 750.212L1283.62 756.526L1250.44 703.941H1258.46L1287.57 750.212ZM1321.12 801.101L1325.08 794.693L1366.17 860H1358.16L1321.12 801.101ZM1295.58 737.49L1291.63 743.898L1266.47 703.941H1274.48L1295.58 737.49ZM1329.04 788.379L1333 781.971L1382.19 860H1374.18L1329.04 788.379ZM1369.47 703.941H1377.48L1279.28 860H1271.27L1369.47 703.941ZM1353.54 703.941H1361.46L1263.26 860H1255.25L1353.54 703.941ZM1337.43 703.941H1345.44L1247.15 860H1239.14L1337.43 703.941ZM1321.41 703.941H1329.42L1231.13 860H1223.12L1321.41 703.941Z" fill="#4A148C"/>
<path d="M531.904 677.167H531.888L531.873 677.168C530.874 677.231 529.875 677.055 528.958 676.657C528.04 676.259 527.23 675.648 526.594 674.877C525.957 674.105 525.513 673.193 525.298 672.216C525.082 671.24 525.101 670.226 525.353 669.258L525.369 669.196V669.132V604.875V604.375H524.869H489.627C487.949 604.375 486.339 603.708 485.152 602.521C483.965 601.334 483.298 599.725 483.298 598.046V591.218C483.298 589.539 483.965 587.93 485.152 586.743C486.339 585.556 487.949 584.889 489.627 584.889H524.869H525.369V584.389V563.494V562.994H524.869H489.627C487.949 562.994 486.339 562.327 485.152 561.14C483.965 559.953 483.298 558.344 483.298 556.665V549.29C483.298 547.612 483.965 546.002 485.152 544.815C486.339 543.629 487.949 542.962 489.627 542.962H524.869H525.369V542.462V521.088V520.588H524.869H489.627C487.949 520.588 486.339 519.922 485.152 518.735C483.965 517.548 483.298 515.938 483.298 514.26V507.431C483.298 505.753 483.965 504.143 485.152 502.956C486.339 501.769 487.949 501.103 489.627 501.103H524.869H525.369V500.603V253.34V252.84H524.869H361.979C360.3 252.84 358.69 252.173 357.503 250.986C356.316 249.8 355.649 248.19 355.649 246.511V211.435H566.987V677.167H531.904Z" fill="#4A148C" stroke="#4A148C"/>
<path d="M1186.02 305.235L1186.01 305.247L1186.01 305.259L1173.22 337.719H1072.61L1059.42 305.254L1059.42 305.244L1059.41 305.235C1058.96 304.227 1058.77 303.117 1058.87 302.014C1058.98 300.912 1059.37 299.857 1060.01 298.954C1060.65 298.051 1061.52 297.331 1062.52 296.868C1063.53 296.404 1064.64 296.212 1065.74 296.312L1065.77 296.314H1065.79H1179.64H1179.66L1179.69 296.312C1180.79 296.212 1181.9 296.404 1182.9 296.868C1183.91 297.331 1184.78 298.051 1185.42 298.954C1186.06 299.857 1186.45 300.912 1186.55 302.014C1186.66 303.117 1186.47 304.227 1186.02 305.235Z" fill="#4A148C" stroke="#4A148C"/>
<path d="M1143.54 401.362L1143.53 401.361H1143.51H1102.05V401.861L1102.04 401.362C1100.72 401.387 1099.43 400.998 1098.34 400.249C1097.25 399.5 1096.42 398.428 1095.97 397.185L1095.97 397.178L1095.96 397.171L1081.28 359.888H1164.56L1149.88 397.171L1149.87 397.178L1149.87 397.185C1149.41 398.472 1148.54 399.574 1147.4 400.327C1146.26 401.08 1144.91 401.443 1143.54 401.362Z" fill="#4A148C" stroke="#4A148C"/>
<path d="M1171.61 677.168L1171.6 677.167H1171.58H1131.34L1316.69 208.03V676.963H1281.88C1280.2 676.963 1278.59 676.296 1277.41 675.109C1276.22 673.922 1275.55 672.312 1275.55 670.634V606.377V605.877H1275.05H1204.84H1204.5L1204.38 606.193L1177.95 673.045L1177.94 673.055C1177.47 674.329 1176.6 675.417 1175.46 676.158C1174.32 676.899 1172.97 677.253 1171.61 677.168ZM1275.14 428.971L1274.18 428.787L1245.77 500.418L1245.5 501.103H1246.23H1274.64H1275.14V500.603V428.971ZM1238.04 521.135H1237.7L1237.57 521.447L1228.9 542.82L1228.62 543.508H1229.36H1274.78H1275.28V543.008V521.635V521.135H1274.78H1238.04ZM1221.1 564.018H1220.76L1220.63 564.334L1212.37 585.23L1212.1 585.913H1212.83H1274.78H1275.28V585.413V564.518V564.018H1274.78H1221.1Z" fill="#4A148C" stroke="#4A148C"/>
<path d="M970.308 605.877H969.808V606.377V670.839C969.808 672.517 969.141 674.127 967.954 675.314C966.767 676.501 965.157 677.167 963.478 677.167H928.531V207.482L1114.23 677.167H1073.98H1073.97L1073.95 677.168C1072.6 677.253 1071.25 676.899 1070.11 676.158C1068.97 675.417 1068.1 674.329 1067.62 673.055L1067.62 673.045L1041.19 606.193L1041.06 605.877H1040.72H970.308ZM971.046 427.968L970.081 428.151V500.603V501.103H970.581H999.198H999.933L999.663 500.419L971.046 427.968ZM970.581 521.135H970.081V521.635V543.008V543.508H970.581H1016H1016.74L1016.46 542.824L1008 521.45L1007.87 521.135H1007.53H970.581ZM970.581 564.018H970.081V564.518V585.413V585.913H970.581H1032.73H1033.47L1033.2 585.23L1024.93 564.334L1024.81 564.018H1024.47H970.581Z" fill="#4A148C" stroke="#4A148C"/>
<path d="M1270.4 152.051L1270.4 152.047C1270.85 150.868 1271.65 149.852 1272.69 149.13C1273.73 148.409 1274.95 148.014 1276.22 147.997H1316.46L1122.27 638.205L928.562 147.861H968.805H968.82L968.835 147.86C970.2 147.779 971.554 148.142 972.695 148.895C973.836 149.648 974.702 150.75 975.165 152.037L975.167 152.044L975.17 152.051L1122.42 524.277L1122.89 525.453L1123.35 524.277L1270.4 152.051Z" fill="#4A148C" stroke="#4A148C"/>
<path d="M1500.98 296.314H1500.99L1501 296.313C1501.86 296.287 1502.72 296.438 1503.52 296.756C1504.33 297.074 1505.06 297.554 1505.67 298.164C1506.28 298.775 1506.76 299.504 1507.07 300.307C1507.39 301.109 1507.54 301.969 1507.52 302.832L1507.52 302.84V302.847V336.9H1402.93V302.642C1402.93 300.964 1403.6 299.354 1404.78 298.167C1405.97 296.98 1407.58 296.314 1409.26 296.314H1500.98Z" fill="#4A148C" stroke="#4A148C"/>
<path d="M1404.58 398.62C1403.39 397.433 1402.72 395.824 1402.72 394.145V359.888H1507.11V394.145C1507.11 395.824 1506.44 397.433 1505.25 398.62C1504.07 399.807 1502.46 400.474 1500.78 400.474H1409.05C1407.37 400.474 1405.76 399.807 1404.58 398.62Z" fill="#4A148C" stroke="#4A148C"/>
<path d="M800.224 154.462L800.224 154.465L800.426 189.266H355.649V154.462C355.649 152.784 356.316 151.174 357.503 149.987C358.69 148.801 360.3 148.134 361.979 148.134H793.894C795.573 148.134 797.183 148.801 798.37 149.987C799.557 151.174 800.224 152.784 800.224 154.462Z" fill="#4A148C" stroke="#4A148C"/>
<path d="M800.724 246.511L800.225 246.532C800.259 247.394 800.117 248.255 799.807 249.061C799.496 249.867 799.024 250.601 798.419 251.217C797.814 251.834 797.09 252.32 796.29 252.646C795.49 252.972 794.632 253.131 793.768 253.113H793.758H631.141H630.641V253.613V501.149V501.649H631.141H666.246C667.925 501.649 669.535 502.316 670.722 503.502C671.909 504.689 672.576 506.299 672.576 507.977V514.806C672.576 516.484 671.909 518.094 670.722 519.281C669.535 520.468 667.925 521.135 666.246 521.135H631.141H630.641V521.635V543.281V543.781H631.141H666.246C667.925 543.781 669.535 544.448 670.722 545.635C671.909 546.822 672.576 548.431 672.576 550.11V557.689C672.576 559.368 671.909 560.978 670.722 562.164C669.535 563.351 667.925 564.018 666.246 564.018H631.141H630.641V564.518V585.891V586.391H631.141H665.904C667.583 586.391 669.193 587.058 670.38 588.245C671.567 589.432 672.234 591.042 672.234 592.72V599.549C672.234 601.227 671.567 602.837 670.38 604.024C669.193 605.21 667.583 605.877 665.904 605.877H630.799H630.299V606.377V670.702C630.299 672.381 629.632 673.99 628.445 675.177C627.258 676.364 625.648 677.031 623.969 677.031H589.091V211.298H800.224V246.511H800.724Z" fill="#4A148C" stroke="#4A148C"/>
<path d="M841.886 337.924H743.627C741.683 337.924 739.819 338.696 738.444 340.07C737.07 341.445 736.297 343.309 736.297 345.253V631.097C736.297 673.161 719.584 713.503 689.835 743.248C660.085 772.992 619.736 789.702 577.663 789.702C535.591 789.702 495.242 772.992 465.492 743.248C435.742 713.503 419.029 673.161 419.029 631.097V345.048C419.029 343.104 418.257 341.24 416.882 339.866C415.508 338.491 413.643 337.719 411.7 337.719H283.504V338.219L283.504 337.719C251.825 337.738 220.706 346.079 193.265 361.906C165.968 377.65 143.264 400.252 127.399 427.469L97.3699 410.101L97.3617 410.096L97.3534 410.092C96.5758 409.68 95.8925 409.111 95.3471 408.421C94.8018 407.731 94.4063 406.935 94.1859 406.083C93.9656 405.232 93.9252 404.344 94.0673 403.476C94.2094 402.608 94.5309 401.779 95.0114 401.042L95.0115 401.042L95.0166 401.034C115.045 368.971 142.922 342.547 176.012 324.258C209.101 305.97 246.309 296.422 284.118 296.519H284.119H454.864C456.543 296.519 458.153 297.185 459.34 298.372C460.527 299.559 461.194 301.169 461.194 302.847L461.193 631.097L461.194 631.109C461.934 661.692 474.605 690.774 496.501 712.143C518.397 733.512 547.783 745.474 578.381 745.474C608.978 745.474 638.364 733.512 660.26 712.143C682.156 690.774 694.827 661.692 695.567 631.109V631.097V302.847C695.567 301.169 696.234 299.559 697.421 298.372C698.608 297.185 700.218 296.519 701.897 296.519H835.556C837.235 296.519 838.845 297.185 840.032 298.372C841.219 299.559 841.886 301.169 841.886 302.847V337.924Z" fill="#4A148C" stroke="#4A148C"/>
<path d="M177.005 456.057L146.638 438.553C160.591 414.716 180.532 394.934 204.489 381.17C228.591 367.323 255.911 360.054 283.709 360.093H283.709H397.267L397.267 630.55L397.267 630.56C398.188 677.904 417.646 722.998 451.46 756.154C485.274 789.311 530.746 807.884 578.107 807.884C625.469 807.884 670.941 789.311 704.755 756.154C738.568 722.998 758.026 677.904 758.948 630.56V630.55V359.888H842.569V394.76H843.069L842.569 394.78C842.605 395.648 842.46 396.515 842.146 397.325C841.832 398.135 841.354 398.872 840.742 399.489C840.131 400.107 839.398 400.592 838.591 400.914C837.784 401.236 836.919 401.388 836.05 401.362L836.042 401.361H836.034H800.724H800.224V401.861V630.55C800.224 689.494 776.805 746.024 735.118 787.703C693.431 829.383 636.891 852.798 577.937 852.798C518.982 852.798 462.442 829.383 420.755 787.703C379.068 746.024 355.649 689.494 355.649 630.55V401.861V401.361H355.149L283.504 401.361L283.504 401.361C264.103 401.383 245.011 406.219 227.941 415.435C210.87 424.651 196.354 437.96 185.694 454.167L185.693 454.168C184.786 455.559 183.368 456.537 181.746 456.892C180.124 457.247 178.427 456.951 177.021 456.067L177.013 456.062L177.005 456.057Z" fill="#4A148C" stroke="#4A148C"/>
<path d="M865.151 154.394V154.386L865.151 154.379C865.125 153.532 865.27 152.689 865.577 151.899C865.884 151.109 866.346 150.389 866.936 149.781C867.527 149.173 868.233 148.69 869.014 148.36C869.794 148.03 870.633 147.86 871.481 147.861H871.481H906.154V675.46H871.481C869.802 675.46 868.192 674.793 867.005 673.607C865.818 672.42 865.151 670.81 865.151 669.132V604.875V604.375H864.651H829.409C827.731 604.375 826.121 603.708 824.934 602.521C823.747 601.334 823.08 599.725 823.08 598.046V591.218C823.08 589.539 823.747 587.93 824.934 586.743C826.121 585.556 827.731 584.889 829.409 584.889H864.651H865.151V584.389V563.494V562.994H864.651H829.409C827.731 562.994 826.121 562.327 824.934 561.14C823.747 559.953 823.08 558.344 823.08 556.665V549.29C823.08 547.612 823.747 546.002 824.934 544.815C826.121 543.629 827.731 542.962 829.409 542.962H864.651H865.151V542.462V521.088V520.588H864.651H829.409C827.731 520.588 826.121 519.922 824.934 518.735C823.747 517.548 823.08 515.938 823.08 514.26V507.431C823.08 505.753 823.747 504.143 824.934 502.956C826.121 501.769 827.731 501.103 829.409 501.103H864.651H865.151V500.603V154.394Z" fill="#4A148C" stroke="#4A148C"/>
<path d="M1500.98 501.103H1500.98C1501.86 501.1 1502.73 501.279 1503.53 501.628C1504.33 501.977 1505.05 502.489 1505.65 503.131C1506.24 503.774 1506.7 504.533 1506.99 505.36C1507.27 506.187 1507.38 507.065 1507.31 507.937L1507.31 507.957V507.977V514.806C1507.31 516.484 1506.65 518.094 1505.46 519.281C1504.27 520.468 1502.66 521.135 1500.98 521.135H1380.98H1380.48V521.635V543.281V543.781H1380.98H1500.98C1502.66 543.781 1504.27 544.448 1505.46 545.635C1506.65 546.822 1507.31 548.431 1507.31 550.11V557.689C1507.31 559.368 1506.65 560.978 1505.46 562.164C1504.27 563.351 1502.66 564.018 1500.98 564.018H1380.98H1380.48V564.518V585.891V586.391H1380.98H1500.98C1502.66 586.391 1504.27 587.058 1505.46 588.245C1506.65 589.432 1507.31 591.042 1507.31 592.72V599.549C1507.31 601.227 1506.65 602.837 1505.46 604.024C1504.27 605.21 1502.66 605.877 1500.98 605.877H1380.98H1380.48V606.377V670.839C1380.48 672.517 1379.82 674.127 1378.63 675.314C1377.44 676.501 1375.83 677.167 1374.15 677.167H1339.14V148.134H1374.15C1375.83 148.134 1377.44 148.801 1378.63 149.987C1379.82 151.174 1380.48 152.784 1380.48 154.462V500.603V501.103H1380.98H1500.98Z" fill="#4A148C" stroke="#4A148C"/>
<path d="M213.841 501.103H326.874C330.52 501.103 333.477 504.058 333.477 507.704V514.533C333.477 518.179 330.52 521.135 326.874 521.135H213.841C210.194 521.135 207.238 518.179 207.238 514.533V507.704C207.238 504.058 210.194 501.103 213.841 501.103Z" fill="#4A148C" stroke="#4A148C"/>
<path d="M213.841 585.913H326.874C330.52 585.913 333.477 588.869 333.477 592.515V599.275C333.477 602.921 330.52 605.877 326.874 605.877H213.841C210.194 605.877 207.238 602.921 207.238 599.275V592.515C207.238 588.869 210.194 585.913 213.841 585.913Z" fill="#4A148C" stroke="#4A148C"/>
<path d="M213.841 543.508H326.874C330.52 543.508 333.477 546.464 333.477 550.11V557.416C333.477 561.062 330.52 564.018 326.874 564.018H213.841C210.194 564.018 207.238 561.062 207.238 557.416V550.11C207.238 546.464 210.194 543.508 213.841 543.508Z" fill="#4A148C" stroke="#4A148C"/>
<path d="M1500.98 501.103H1500.98C1501.86 501.1 1502.73 501.279 1503.53 501.628C1504.33 501.977 1505.05 502.489 1505.65 503.131C1506.24 503.774 1506.7 504.533 1506.99 505.36C1507.27 506.187 1507.38 507.065 1507.31 507.937L1507.31 507.957V507.977V514.806C1507.31 516.484 1506.65 518.094 1505.46 519.281C1504.27 520.468 1502.66 521.135 1500.98 521.135H1380.98H1380.48V521.635V543.281V543.781H1380.98H1500.98C1502.66 543.781 1504.27 544.448 1505.46 545.635C1506.65 546.822 1507.31 548.431 1507.31 550.11V557.689C1507.31 559.368 1506.65 560.978 1505.46 562.164C1504.27 563.351 1502.66 564.018 1500.98 564.018H1380.98H1380.48V564.518V585.891V586.391H1380.98H1500.98C1502.66 586.391 1504.27 587.058 1505.46 588.245C1506.65 589.432 1507.31 591.042 1507.31 592.72V599.549C1507.31 601.227 1506.65 602.837 1505.46 604.024C1504.27 605.21 1502.66 605.877 1500.98 605.877H1380.98H1380.48V606.377V670.839C1380.48 672.517 1379.82 674.127 1378.63 675.314C1377.44 676.501 1375.83 677.167 1374.15 677.167H1339.14V148.134H1374.15C1375.83 148.134 1377.44 148.801 1378.63 149.987C1379.82 151.174 1380.48 152.784 1380.48 154.462V500.603V501.103H1380.98H1500.98Z" fill="#4A148C" stroke="#4A148C"/>
</g>
<defs>
<clipPath id="clip0_1_3">
<rect width="1605" height="956" fill="white"/>
</clipPath>
</defs>
</svg>
